PathFileType	4	(X/Y/Z)	C:\Users\WrightLab\Desktop\Jo\P5V15.trc
DataRate	CameraRate	NumFrames	NumMarkers	Units	OrigDataRate	OrigDataStartFrame	OrigNumFrames
100.00	100.00	       64	19	mm	100.00	101	       805
Frame#	Time	Headset_Front			Headset_Back			Headset_Left			Headset_Right			Left_Shoulder			Right_Shoulder			Sternum			C7			Left Elbow			Right Elbow			Left Wrist			Right Wrist			Left ASIS			Right ASIS			S2			Left Knee			Right Knee			Left Ankle			Right Ankle			
		X1	Y1	Z1	X2	Y2	Z2	X3	Y3	Z3	X4	Y4	Z4	X5	Y5	Z5	X6	Y6	Z6	X7	Y7	Z7	X8	Y8	Z8	X9	Y9	Z9	X10	Y10	Z10	X11	Y11	Z11	X12	Y12	Z12	X13	Y13	Z13	X14	Y14	Z14	X15	Y15	Z15	X16	Y16	Z16	X17	Y17	Z17	X18	Y18	Z18	X19	Y19	Z19	

101	1.000																												-83.55582	1203.30066	1600.03137				-145.95596	1030.08215	1409.52429													-137.03114	532.50049	1845.80408							
102	1.010																												-82.94471	1202.00964	1602.60107				-146.16721	1030.08777	1410.95667													-140.70300	534.59296	1840.79199							
103	1.020																												-82.48109	1200.89563	1603.28748				-145.73950	1029.75403	1412.67078													-144.27794	534.56421	1835.66443							
104	1.030																												-81.79129	1199.77380	1605.79834				-146.12120	1029.64575	1413.50354													-148.01944	534.99121	1830.01575							
105	1.040																												-81.03815	1198.85486	1607.51526				-145.89001	1029.21790	1415.63586													-152.74013	533.86584	1825.05835							
106	1.050																												-80.05634	1197.82703	1608.65833				-145.69482	1029.00305	1417.97302													-158.73045	534.04602	1816.54529							
107	1.060																												-79.30995	1196.93091	1611.71228				-146.08864	1028.50989	1420.15381													-165.41536	532.73383	1810.60767							
108	1.070																												-78.22295	1195.54712	1613.31946				-146.11304	1027.77026	1422.85657													-173.05493	533.70905	1800.65137							
109	1.080																												-77.36985	1194.59814	1615.78125				-145.73732	1027.49475	1425.72791													-180.56401	534.22205	1792.79651							
110	1.090																												-76.53009	1193.52856	1618.64868				-145.54233	1026.73083	1428.12695													-188.22386	534.95850	1785.62390							
111	1.100																												-75.18027	1192.52710	1620.38342				-145.47168	1025.90613	1431.47290													-195.68085	535.73096	1776.65454							
112	1.110																												-74.00579	1191.24841	1623.51685				-144.33798	1024.95874	1434.16650													-203.92563	536.80835	1772.25952							
113	1.120																												-72.94672	1190.64343	1627.36255				-144.19864	1023.65656	1437.25745													-212.56770	538.04913	1762.97021							
114	1.130																												-71.94424	1189.56299	1630.21729				-143.67805	1022.51715	1440.52173													-220.48682	538.66205	1757.60083							
115	1.140																												-71.41189	1188.70850	1633.30249				-143.04395	1021.53522	1444.39868													-228.25874	540.11053	1750.32471							
116	1.150																												-70.76482	1188.03687	1635.15295				-142.44099	1020.42914	1447.85193													-236.97058	541.66339	1745.94836							
117	1.160																												-70.10887	1187.37439	1638.19958				-141.59319	1019.51886	1451.71545													-244.89085	543.23126	1736.83215							
118	1.170																												-69.62331	1186.97168	1639.61438				-140.91698	1018.37933	1455.28979													-253.00406	544.10815	1732.96301							
119	1.180																												-68.69479	1186.39172	1643.30542				-139.93272	1017.06366	1459.15942													-261.07941	546.00049	1727.02466							
120	1.190																												-68.06874	1185.97681	1646.44214				-138.99277	1015.77032	1462.73035													-269.51520	547.59094	1721.47009							
121	1.200																												-67.31235	1185.60620	1650.17627				-138.10909	1014.64166	1465.86292													-277.72858	549.19574	1717.65405							
122	1.210																												-66.55939	1185.35266	1652.82275				-136.88139	1013.12085	1470.47534													-286.18005	550.83795	1714.56079							
123	1.220																												-66.26128	1185.50269	1655.07727				-135.53949	1012.25806	1474.03638													-294.10831	553.18372	1711.71741							
124	1.230																												-65.59065	1185.51208	1658.77356				-134.40495	1011.42181	1478.63513													-302.20590	554.53748	1706.78345							
125	1.240																												-65.13982	1185.53809	1662.30225				-133.04459	1010.21771	1482.94312													-310.09641	557.04462	1704.40491							
126	1.250																												-64.53463	1185.72815	1664.26941				-132.42081	1009.05817	1486.65369													-317.66638	559.71704	1699.58093							
127	1.260																												-63.97293	1185.64783	1667.72607				-131.57587	1008.06775	1490.37341													-324.89941	561.62543	1697.45496							
128	1.270																												-63.68324	1186.01599	1670.13696				-130.09155	1007.51556	1494.34558													-332.52249	564.34186	1694.29541							
129	1.280																												-63.22535	1186.62390	1672.16614				-129.06313	1006.43585	1498.18591													-338.90796	566.17609	1690.49854							
130	1.290																												-62.61206	1186.99841	1674.22058				-127.85075	1005.85272	1501.38696													-346.00729	568.68640	1688.38660							
131	1.300																												-62.02204	1187.62610	1677.31445				-126.76060	1004.91833	1506.24585													-353.00180	570.10388	1686.68970							
132	1.310																												-61.77662	1188.11047	1679.94556				-125.74531	1003.40570	1509.05396													-359.19659	571.61517	1686.15479							
133	1.320																												-61.55082	1188.85510	1681.47693				-124.28634	1003.91302	1512.86694													-365.09995	573.91156	1685.42188							
134	1.330																												-61.66557	1189.65027	1683.91333				-123.71021	1002.22546	1515.01160													-370.24670	576.13654	1683.66003							
135	1.340																												-61.75450	1190.51172	1685.75806				-121.97777	1002.61511	1518.40381													-375.63782	577.99817	1683.29272							
136	1.350																												-61.58489	1191.26477	1686.63818				-121.43899	1002.04333	1519.96716													-380.55722	578.85840	1681.86182							
137	1.360																												-61.59160	1191.72119	1687.50354				-120.12803	1001.36615	1522.05298													-385.22684	578.33728	1684.51831							
138	1.370																												-61.70171	1192.33130	1687.97180				-119.36390	1000.47742	1524.96899													-388.87573	580.54193	1684.12976							
139	1.380																												-62.17894	1193.07458	1688.83630	-674.18726	1060.22949	1941.63599	-119.05563	1000.35864	1525.74622													-392.52921	581.07697	1681.53894							
140	1.390																												-62.75269	1194.02490	1688.88013	-676.18530	1059.46191	1939.86646	-118.58971	1000.75897	1527.51245													-395.33420	582.04022	1682.31335							
141	1.400																												-63.39851	1194.43787	1689.85791	-677.60754	1058.91431	1936.51929	-118.47262	1000.32050	1528.68262													-398.41675	582.36072	1682.50183							
142	1.410																												-64.32122	1194.87805	1690.20996	-679.44159	1057.95837	1934.37329	-118.28126	1000.51147	1529.59387													-400.29718	582.25000	1681.93494							
143	1.420																												-65.20057	1195.31653	1690.21313	-681.67651	1056.98730	1930.53723	-118.14153	1000.49152	1530.02856													-401.46951	582.28638	1680.80115							
144	1.430																												-66.44280	1195.69934	1690.23450	-682.85376	1056.13367	1927.42908	-118.03424	1000.32422	1530.57361													-402.66693	581.79407	1680.10059							
145	1.440																												-67.52027	1196.38147	1688.60242	-685.12354	1055.23828	1924.33984	-118.35033	1000.42584	1530.28662													-403.30756	581.44678	1680.65430							
146	1.450																												-68.27870	1196.57886	1687.95435	-687.04785	1054.21814	1920.59778	-118.75406	1000.15723	1530.35156													-403.77686	580.76624	1680.14429							
147	1.460																												-69.90013	1197.36218	1686.31995	-688.43848	1053.38232	1917.67651	-119.06807	1000.11511	1529.33386													-403.92511	580.36108	1680.23865							
148	1.470																												-71.28387	1197.38623	1686.07568	-690.71655	1052.51514	1913.36926	-119.61070	999.78857	1529.01282													-403.64957	579.58496	1678.70093							
149	1.480																												-72.63821	1197.90186	1685.21875	-692.41150	1051.50464	1909.96509	-120.67623	999.82153	1527.56421													-403.09613	578.16077	1677.90662							
150	1.490																												-73.98127	1198.01453	1685.01331	-694.12695	1050.53882	1906.21838	-121.65612	1000.02588	1527.20483													-402.48892	577.66034	1676.42505							
151	1.500																												-75.82351	1198.44470	1682.91821	-696.53796	1049.91272	1902.46118	-122.61359	999.99530	1526.68103													-401.24170	576.10797	1674.17810							
152	1.510																												-77.38514	1198.78088	1681.25818	-697.96002	1048.81641	1898.27417	-123.95959	1001.05377	1525.01941													-399.96994	575.01166	1673.22742							
153	1.520																												-79.28477	1199.26892	1679.60303	-700.30792	1048.06885	1894.13989	-125.86593	1001.02393	1523.29114													-398.81750	574.28870	1671.51440							
154	1.530																												-81.03084	1199.22668	1679.12231	-702.21808	1047.55066	1889.13367	-126.43325	1001.42914	1522.53711													-397.76843	572.08203	1671.73987							
155	1.540																												-82.93956	1199.27979	1678.06873	-703.88647	1047.09277	1883.95459	-127.91136	1002.08948	1521.99792													-396.18088	570.36011	1671.49695							
156	1.550																												-84.63162	1199.79138	1676.29590	-706.15625	1046.46924	1879.89478	-129.58878	1001.59528	1519.22998													-395.21762	569.76166	1670.84021							
157	1.560																												-86.46020	1199.73596	1673.69739	-708.11792	1045.99048	1875.28821	-130.87651	1002.16962	1518.18091													-394.08606	568.19696	1668.68323							
158	1.570																												-88.68694	1200.25781	1671.27686	-710.49365	1045.17188	1870.68604	-132.77182	1002.10510	1515.16553													-393.16489	567.04456	1667.56812							
159	1.580																												-90.18587	1199.96680	1671.40039	-712.32135	1044.81421	1865.81604	-134.03549	1002.14783	1514.33081													-392.43820	565.51563	1665.75146							
160	1.590																												-92.32229	1200.07300	1669.45508	-714.63312	1044.44312	1859.89453	-136.22829	1002.44421	1512.30273													-392.35507	565.32806	1665.05530							
161	1.600																												-94.27136	1200.32813	1667.64734	-716.89783	1044.14587	1854.83740	-137.98224	1001.47327	1510.51672													-392.19904	564.78552	1664.48059							
162	1.610																												-95.66136	1200.21814	1665.32275	-719.52844	1043.60486	1850.27649	-139.67798	1002.25134	1508.51746													-391.99811	563.05554	1663.68066							
163	1.620																												-98.01328	1200.28064	1663.14978	-721.86829	1043.31104	1844.90076	-140.94199	1002.53375	1505.83838													-392.13394	562.23700	1662.33704							
164	1.630																												-99.85851	1200.18445	1661.69092	-724.19763	1043.31873	1838.69922	-142.23866	1003.11261	1504.87610													-392.59277	561.55969	1660.69836							
